<svg width="24" height="24" viewBox="0 0 24 24" fill="none" xmlns="http://www.w3.org/2000/svg">
<path d="M5.81333 4C4.81186 4 4 4.83031 4 5.85455C4 6.87878 4.81186 7.70909 5.81333 7.70909C6.81481 7.70909 7.62667 6.87878 7.62667 5.85455C7.62667 4.83031 6.81481 4 5.81333 4Z" fill="#57585D"/>
<path d="M4.10667 9.23636C4.04776 9.23636 4 9.2852 4 9.34545V20.6909C4 20.7512 4.04776 20.8 4.10667 20.8H7.52C7.57891 20.8 7.62667 20.7512 7.62667 20.6909V9.34545C7.62667 9.2852 7.57891 9.23636 7.52 9.23636H4.10667Z" fill="#57585D"/>
<path d="M9.65333 9.23636C9.59442 9.23636 9.54667 9.2852 9.54667 9.34545V20.6909C9.54667 20.7512 9.59442 20.8 9.65333 20.8H13.0667C13.1256 20.8 13.1733 20.7512 13.1733 20.6909V14.5818C13.1733 14.1478 13.3419 13.7316 13.642 13.4247C13.942 13.1179 14.349 12.9455 14.7733 12.9455C15.1977 12.9455 15.6046 13.1179 15.9047 13.4247C16.2048 13.7316 16.3733 14.1478 16.3733 14.5818V20.6909C16.3733 20.7512 16.4211 20.8 16.48 20.8H19.8933C19.9522 20.8 20 20.7512 20 20.6909V13.1682C20 11.0503 18.1989 9.39345 16.1385 9.58502C15.5031 9.6441 14.8748 9.80565 14.2882 10.0628L13.1733 10.5514V9.34545C13.1733 9.2852 13.1256 9.23636 13.0667 9.23636H9.65333Z" fill="#57585D"/>
</svg>
