<svg width="32" height="32" viewBox="0 0 32 32" fill="none" xmlns="http://www.w3.org/2000/svg">
<path fill-rule="evenodd" clip-rule="evenodd" d="M26 3H6C4.34315 3 3 4.34315 3 6V26C3 27.6569 4.34315 29 6 29H26C27.6569 29 29 27.6569 29 26V6C29 4.34315 27.6569 3 26 3ZM6 2C3.79086 2 2 3.79086 2 6V26C2 28.2091 3.79086 30 6 30H26C28.2091 30 30 28.2091 30 26V6C30 3.79086 28.2091 2 26 2H6Z" fill="#87888B"/>
<path d="M21.5167 10.66L10.9101 21.2666C10.6685 21.5082 10.2678 21.5082 10.0262 21.2666C9.78464 21.0251 9.78464 20.6244 10.0262 20.3828L20.6328 9.77616C20.8744 9.53457 21.2751 9.53457 21.5167 9.77616C21.7583 10.0178 21.7583 10.4185 21.5167 10.66Z" fill="white"/>
<path d="M21.1631 21.4434L10.5565 10.8368C10.3149 10.5952 10.3149 10.1945 10.5565 9.95293C10.7981 9.71133 11.1988 9.71133 11.4404 9.95293L22.047 20.5595C22.2886 20.8011 22.2886 21.2018 22.047 21.4434C21.8054 21.685 21.4047 21.685 21.1631 21.4434Z" fill="white"/>
</svg>
