<svg width="32" height="32" viewBox="0 0 32 32" fill="none" xmlns="http://www.w3.org/2000/svg">
<path fill-rule="evenodd" clip-rule="evenodd" d="M26 3H6C4.34315 3 3 4.34315 3 6V26C3 27.6569 4.34315 29 6 29H26C27.6569 29 29 27.6569 29 26V6C29 4.34315 27.6569 3 26 3ZM6 2C3.79086 2 2 3.79086 2 6V26C2 28.2091 3.79086 30 6 30H26C28.2091 30 30 28.2091 30 26V6C30 3.79086 28.2091 2 26 2H6Z" fill="#87888B"/>
<path d="M23.5 13.25H8.5C8.15833 13.25 7.875 12.9667 7.875 12.625C7.875 12.2833 8.15833 12 8.5 12H23.5C23.8417 12 24.125 12.2833 24.125 12.625C24.125 12.9667 23.8417 13.25 23.5 13.25Z" fill="white"/>
<path d="M23.5 19.25H8.5C8.15833 19.25 7.875 18.9667 7.875 18.625C7.875 18.2833 8.15833 18 8.5 18H23.5C23.8417 18 24.125 18.2833 24.125 18.625C24.125 18.9667 23.8417 19.25 23.5 19.25Z" fill="white"/>
</svg>
