<svg width="24" height="24" viewBox="0 0 24 24" fill="none" xmlns="http://www.w3.org/2000/svg">
<path d="M11.9999 20.9997C16.9703 20.9997 20.9997 16.9703 20.9997 11.9999C20.9997 7.02937 16.9703 3 11.9999 3C7.02937 3 3 7.02937 3 11.9999C3 16.9703 7.02937 20.9997 11.9999 20.9997Z" fill="#F0F0F0"/>
<path d="M11.6085 11.9999H20.9997C20.9997 11.1876 20.8914 10.4007 20.6896 9.6521H11.6085V11.9999Z" fill="#D80027"/>
<path d="M11.6085 7.30434H19.6787C19.1278 6.40534 18.4234 5.61072 17.6021 4.95654H11.6085V7.30434Z" fill="#D80027"/>
<path d="M11.9998 20.9999C14.1179 20.9999 16.0648 20.2679 17.6021 19.0435H6.39758C7.93494 20.2679 9.88176 20.9999 11.9998 20.9999Z" fill="#D80027"/>
<path d="M4.32084 16.6957H19.6787C20.121 15.974 20.464 15.1851 20.6896 14.3479H3.30994C3.53553 15.1851 3.87854 15.974 4.32084 16.6957Z" fill="#D80027"/>
<path d="M7.1689 4.40545H7.98905L7.22617 4.95968L7.51757 5.85647L6.75473 5.30224L5.99189 5.85647L6.2436 5.08174C5.57192 5.64125 4.9832 6.29676 4.49805 7.02715H4.76084L4.27524 7.37994C4.19958 7.50615 4.12702 7.63436 4.05748 7.76447L4.28937 8.47817L3.85674 8.16384C3.7492 8.39168 3.65084 8.62466 3.56242 8.86249L3.8179 9.64885H4.76084L3.99796 10.2031L4.28937 11.0999L3.52653 10.5456L3.06957 10.8776C3.02384 11.2453 3 11.6198 3 11.9999H11.9999C11.9999 7.0294 11.9999 6.44343 11.9999 3C10.222 3 8.56462 3.51573 7.1689 4.40545ZM7.51757 11.0999L6.75473 10.5456L5.99189 11.0999L6.28329 10.2031L5.52042 9.64885H6.46336L6.75473 8.75207L7.0461 9.64885H7.98905L7.22617 10.2031L7.51757 11.0999ZM7.22617 7.58138L7.51757 8.47817L6.75473 7.92394L5.99189 8.47817L6.28329 7.58138L5.52042 7.02715H6.46336L6.75473 6.13037L7.0461 7.02715H7.98905L7.22617 7.58138ZM10.7458 11.0999L9.98294 10.5456L9.22009 11.0999L9.5115 10.2031L8.74862 9.64885H9.69157L9.98294 8.75207L10.2743 9.64885H11.2173L10.4544 10.2031L10.7458 11.0999ZM10.4544 7.58138L10.7458 8.47817L9.98294 7.92394L9.22009 8.47817L9.5115 7.58138L8.74862 7.02715H9.69157L9.98294 6.13037L10.2743 7.02715H11.2173L10.4544 7.58138ZM10.4544 4.95968L10.7458 5.85647L9.98294 5.30224L9.22009 5.85647L9.5115 4.95968L8.74862 4.40545H9.69157L9.98294 3.50867L10.2743 4.40545H11.2173L10.4544 4.95968Z" fill="#0052B4"/>
</svg>
