<svg width="269" height="40" viewBox="0 0 269 40" fill="none" xmlns="http://www.w3.org/2000/svg">
<g clip-path="url(#clip0_587_1643)">
<path d="M24.9236 0C20.8231 0 16.8906 1.6134 13.9911 4.48528L4.52841 13.8579C1.62891 16.7297 0 20.6248 0 24.6863C0 33.1439 6.92211 40 15.461 40C19.5615 40 23.494 38.3865 26.3935 35.5147L32.9389 29.0316C32.939 29.0317 32.9389 29.0315 32.9389 29.0316L52.01 10.1421C53.3948 8.77055 55.2729 8 57.2313 8C60.51 8 63.2897 10.1165 64.2534 13.0454L70.2722 7.08395C67.5264 2.82445 62.7119 0 57.2313 0C53.1308 0 49.1983 1.6134 46.2988 4.48528L20.6823 29.8579C19.2975 31.2295 17.4194 32 15.461 32C11.3829 32 8.07692 28.7256 8.07692 24.6863C8.07692 22.7465 8.85488 20.8863 10.2397 19.5147L19.7023 10.1421C21.0871 8.77055 22.9653 8 24.9236 8C28.2025 8 30.982 10.1166 31.9457 13.0456L37.9646 7.08409C35.2189 2.82453 30.4044 0 24.9236 0Z" fill="#E14817"/>
<path d="M52.9904 29.8579C51.6056 31.2295 49.7275 32 47.7691 32C44.4908 32 41.7114 29.884 40.7474 26.9556L34.7288 32.9169C37.4746 37.1759 42.2889 40 47.7691 40C51.8696 40 55.8021 38.3865 58.7016 35.5147L84.3181 10.1421C85.7029 8.77055 87.581 8 89.5394 8C93.6176 8 96.9235 11.2745 96.9235 15.3137C96.9235 17.2535 96.1455 19.1137 94.7608 20.4853L85.2981 29.8579C83.9133 31.2295 82.0352 32 80.0768 32C76.7982 32 74.0187 29.8836 73.0548 26.9549L67.0362 32.9164C69.7819 37.1757 74.5963 40 80.0768 40C84.1773 40 88.1098 38.3865 91.0093 35.5147L100.472 26.1421C103.371 23.2703 105 19.3752 105 15.3137C105 6.85619 98.0784 0 89.5394 0C85.4389 0 81.5064 1.6134 78.6069 4.48528L52.9904 29.8579Z" fill="#E14817"/>
</g>
<path d="M121.697 7.78816V13.6033H129.58V17.2918H121.697V23.4393H130.586V27.2274H117V4H130.586V7.78816H121.697Z" fill="#0F1017"/>
<path d="M142.604 22.9408L147.3 8.81828H152.299L145.422 27.2274H139.719L132.875 8.81828H137.907L142.604 22.9408Z" fill="#0F1017"/>
<path d="M172.213 17.6241C172.213 18.2887 172.168 18.8868 172.079 19.4185H158.492C158.604 20.7477 159.074 21.7889 159.901 22.5421C160.729 23.2953 161.746 23.6719 162.954 23.6719C164.699 23.6719 165.94 22.9297 166.678 21.4455H171.743C171.207 23.2177 170.178 24.6798 168.657 25.8318C167.136 26.9616 165.269 27.5265 163.055 27.5265C161.266 27.5265 159.655 27.1388 158.224 26.3634C156.815 25.5659 155.708 24.4472 154.903 23.0073C154.12 21.5673 153.729 19.9058 153.729 18.0228C153.729 16.1177 154.12 14.4451 154.903 13.0052C155.686 11.5652 156.782 10.4576 158.191 9.68224C159.6 8.90689 161.221 8.51921 163.055 8.51921C164.822 8.51921 166.398 8.89581 167.785 9.64901C169.194 10.4022 170.279 11.4766 171.039 12.8723C171.822 14.2458 172.213 15.8297 172.213 17.6241ZM167.349 16.2949C167.326 15.0986 166.89 14.1461 166.04 13.4372C165.191 12.7061 164.151 12.3406 162.921 12.3406C161.758 12.3406 160.774 12.6951 159.969 13.4039C159.186 14.0907 158.705 15.0543 158.526 16.2949H167.349Z" fill="#0F1017"/>
<path d="M185.94 8.55244C188.154 8.55244 189.943 9.25026 191.307 10.6459C192.672 12.0194 193.354 13.9467 193.354 16.4278V27.2274H188.657V17.0592C188.657 15.5971 188.288 14.4784 187.55 13.703C186.812 12.9055 185.806 12.5068 184.531 12.5068C183.234 12.5068 182.205 12.9055 181.445 13.703C180.707 14.4784 180.338 15.5971 180.338 17.0592V27.2274H175.641V8.81828H180.338V11.1111C180.964 10.3136 181.758 9.69332 182.719 9.25026C183.703 8.78505 184.777 8.55244 185.94 8.55244Z" fill="#0F1017"/>
<path d="M203.288 12.6397V21.5452C203.288 22.1655 203.433 22.6196 203.724 22.9076C204.037 23.1734 204.552 23.3063 205.267 23.3063H207.448V27.2274H204.496C200.537 27.2274 198.558 25.3223 198.558 21.5119V12.6397H196.344V8.81828H198.558V4.26584H203.288V8.81828H207.448V12.6397H203.288Z" fill="#0F1017"/>
<path d="M215.455 4.03323V18.3884C215.455 19.9612 215.869 21.1686 216.696 22.0104C217.524 22.83 218.687 23.2399 220.185 23.2399C221.706 23.2399 222.88 22.83 223.708 22.0104C224.535 21.1686 224.949 19.9612 224.949 18.3884V4.03323H229.679V18.3551C229.679 20.3268 229.243 21.9993 228.371 23.3728C227.521 24.7241 226.369 25.7432 224.915 26.4299C223.484 27.1166 221.885 27.46 220.118 27.46C218.374 27.46 216.786 27.1166 215.355 26.4299C213.946 25.7432 212.827 24.7241 212 23.3728C211.172 21.9993 210.759 20.3268 210.759 18.3551V4.03323H215.455Z" fill="#0F1017"/>
<path d="M238.913 11.4766C239.517 10.6348 240.345 9.937 241.396 9.38318C242.469 8.8072 243.688 8.51921 245.052 8.51921C246.64 8.51921 248.071 8.90689 249.346 9.68224C250.643 10.4576 251.661 11.5652 252.399 13.0052C253.159 14.423 253.54 16.0734 253.54 17.9564C253.54 19.8394 253.159 21.5119 252.399 22.974C251.661 24.414 250.643 25.5327 249.346 26.3302C248.071 27.1277 246.64 27.5265 245.052 27.5265C243.688 27.5265 242.48 27.2496 241.429 26.6957C240.4 26.1419 239.562 25.4441 238.913 24.6023V36H234.217V8.81828H238.913V11.4766ZM248.742 17.9564C248.742 16.8487 248.508 15.8962 248.038 15.0987C247.591 14.279 246.987 13.6587 246.226 13.2378C245.488 12.8169 244.683 12.6064 243.811 12.6064C242.961 12.6064 242.156 12.828 241.396 13.271C240.658 13.6919 240.054 14.3122 239.584 15.1319C239.137 15.9515 238.913 16.9152 238.913 18.0228C238.913 19.1305 239.137 20.0942 239.584 20.9138C240.054 21.7335 240.658 22.3648 241.396 22.8079C242.156 23.2288 242.961 23.4393 243.811 23.4393C244.683 23.4393 245.488 23.2177 246.226 22.7747C246.987 22.3316 247.591 21.7002 248.038 20.8806C248.508 20.0609 248.742 19.0862 248.742 17.9564Z" fill="#0F1017"/>
<ellipse cx="265.645" cy="20.6147" rx="3.35466" ry="3.32295" fill="#0F1017"/>
<defs>
<clipPath id="clip0_587_1643">
<rect width="105" height="40" fill="white"/>
</clipPath>
</defs>
</svg>
