<svg width="181" height="30" viewBox="0 0 181 30" fill="none" xmlns="http://www.w3.org/2000/svg">
<path d="M92.8 7.28V10.78H97.5V13H92.8V16.7H98.1V18.98H90V5H98.1V7.28H92.8Z" fill="white"/>
<path d="M105.265 16.4L108.065 7.9H111.045L106.945 18.98H103.545L99.4645 7.9H102.465L105.265 16.4Z" fill="white"/>
<path d="M122.917 13.2C122.917 13.6 122.891 13.96 122.837 14.28H114.737C114.804 15.08 115.084 15.7067 115.577 16.16C116.071 16.6133 116.677 16.84 117.397 16.84C118.437 16.84 119.177 16.3933 119.617 15.5H122.637C122.317 16.5667 121.704 17.4467 120.797 18.14C119.891 18.82 118.777 19.16 117.457 19.16C116.391 19.16 115.431 18.9267 114.577 18.46C113.737 17.98 113.077 17.3067 112.597 16.44C112.131 15.5733 111.897 14.5733 111.897 13.44C111.897 12.2933 112.131 11.2867 112.597 10.42C113.064 9.55333 113.717 8.88667 114.557 8.42C115.397 7.95333 116.364 7.72 117.457 7.72C118.511 7.72 119.451 7.94667 120.277 8.4C121.117 8.85333 121.764 9.5 122.217 10.34C122.684 11.1667 122.917 12.12 122.917 13.2ZM120.017 12.4C120.004 11.68 119.744 11.1067 119.237 10.68C118.731 10.24 118.111 10.02 117.377 10.02C116.684 10.02 116.097 10.2333 115.617 10.66C115.151 11.0733 114.864 11.6533 114.757 12.4H120.017Z" fill="white"/>
<path d="M131.101 7.74C132.421 7.74 133.488 8.16 134.301 9C135.114 9.82667 135.521 10.9867 135.521 12.48V18.98H132.721V12.86C132.721 11.98 132.501 11.3067 132.061 10.84C131.621 10.36 131.021 10.12 130.261 10.12C129.488 10.12 128.874 10.36 128.421 10.84C127.981 11.3067 127.761 11.98 127.761 12.86V18.98H124.961V7.9H127.761V9.28C128.134 8.8 128.608 8.42667 129.181 8.16C129.768 7.88 130.408 7.74 131.101 7.74Z" fill="white"/>
<path d="M141.444 10.2V15.56C141.444 15.9333 141.53 16.2067 141.704 16.38C141.89 16.54 142.197 16.62 142.624 16.62H143.924V18.98H142.164C139.804 18.98 138.624 17.8333 138.624 15.54V10.2H137.304V7.9H138.624V5.16H141.444V7.9H143.924V10.2H141.444Z" fill="white"/>
<path d="M148.698 5.02V13.66C148.698 14.6067 148.944 15.3333 149.438 15.84C149.931 16.3333 150.624 16.58 151.518 16.58C152.424 16.58 153.124 16.3333 153.618 15.84C154.111 15.3333 154.357 14.6067 154.357 13.66V5.02H157.177V13.64C157.177 14.8267 156.917 15.8333 156.397 16.66C155.891 17.4733 155.204 18.0867 154.338 18.5C153.484 18.9133 152.531 19.12 151.478 19.12C150.438 19.12 149.491 18.9133 148.638 18.5C147.798 18.0867 147.131 17.4733 146.638 16.66C146.144 15.8333 145.897 14.8267 145.897 13.64V5.02H148.698Z" fill="white"/>
<path d="M162.683 9.5C163.043 8.99333 163.536 8.57333 164.163 8.24C164.803 7.89333 165.529 7.72 166.343 7.72C167.289 7.72 168.143 7.95333 168.903 8.42C169.676 8.88667 170.283 9.55333 170.723 10.42C171.176 11.2733 171.403 12.2667 171.403 13.4C171.403 14.5333 171.176 15.54 170.723 16.42C170.283 17.2867 169.676 17.96 168.903 18.44C168.143 18.92 167.289 19.16 166.343 19.16C165.529 19.16 164.809 18.9933 164.183 18.66C163.569 18.3267 163.069 17.9067 162.683 17.4V24.26H159.883V7.9H162.683V9.5ZM168.543 13.4C168.543 12.7333 168.403 12.16 168.123 11.68C167.856 11.1867 167.496 10.8133 167.043 10.56C166.603 10.3067 166.123 10.18 165.603 10.18C165.096 10.18 164.616 10.3133 164.163 10.58C163.723 10.8333 163.363 11.2067 163.083 11.7C162.816 12.1933 162.683 12.7733 162.683 13.44C162.683 14.1067 162.816 14.6867 163.083 15.18C163.363 15.6733 163.723 16.0533 164.163 16.32C164.616 16.5733 165.096 16.7 165.603 16.7C166.123 16.7 166.603 16.5667 167.043 16.3C167.496 16.0333 167.856 15.6533 168.123 15.16C168.403 14.6667 168.543 14.08 168.543 13.4Z" fill="white"/>
<circle cx="178.62" cy="15" r="2" fill="white"/>
<g clip-path="url(#clip0_98_2280)">
<path d="M18.5147 0C15.4686 0 12.5473 1.21005 10.3934 3.36396L3.36396 10.3934C1.21005 12.5473 0 15.4686 0 18.5147C0 24.8579 5.14214 30 11.4853 30C14.5314 30 17.4527 28.7899 19.6066 26.636L24.4689 21.7737C24.469 21.7738 24.4689 21.7736 24.4689 21.7737L38.636 7.6066C39.6647 6.57791 41.0599 6 42.5147 6C44.9503 6 47.0152 7.58741 47.7311 9.78407L52.2022 5.31296C50.1625 2.11834 46.586 0 42.5147 0C39.4686 0 36.5473 1.21005 34.3934 3.36396L15.364 22.3934C14.3353 23.4221 12.9401 24 11.4853 24C8.45584 24 6 21.5442 6 18.5147C6 17.0599 6.57791 15.6647 7.6066 14.636L14.636 7.6066C15.6647 6.57791 17.0599 6 18.5147 6C20.9504 6 23.0152 7.58748 23.7311 9.78421L28.2023 5.31307C26.1626 2.1184 22.5861 0 18.5147 0Z" fill="#E14817"/>
<path d="M39.3639 22.3934C38.3352 23.4221 36.94 24 35.4852 24C33.0499 24 30.9852 22.413 30.2691 20.2167L25.7981 24.6877C27.8379 27.8819 31.4142 30 35.4852 30C38.5313 30 41.4526 28.7899 43.6065 26.636L62.6359 7.6066C63.6646 6.57791 65.0598 6 66.5146 6C69.5441 6 71.9999 8.45584 71.9999 11.4853C71.9999 12.9401 71.422 14.3353 70.3933 15.364L63.3639 22.3934C62.3352 23.4221 60.94 24 59.4852 24C57.0497 24 54.9849 22.4127 54.2689 20.2162L49.7979 24.6873C51.8376 27.8818 55.414 30 59.4852 30C62.5313 30 65.4526 28.7899 67.6065 26.636L74.6359 19.6066C76.7898 17.4527 77.9999 14.5314 77.9999 11.4853C77.9999 5.14214 72.8578 0 66.5146 0C63.4685 0 60.5472 1.21005 58.3933 3.36396L39.3639 22.3934Z" fill="#E14817"/>
</g>
<defs>
<clipPath id="clip0_98_2280">
<rect width="78" height="30" fill="white"/>
</clipPath>
</defs>
</svg>
